<svg width="222" height="81" viewBox="0 0 222 81" fill="none" xmlns="http://www.w3.org/2000/svg">
<rect y="0.170654" width="29" height="10" fill="black"/>
<rect width="10" height="80" fill="black"/>
<rect y="70.1707" width="29" height="10" fill="black"/>
<path d="M33.5547 31.5613C32.3828 31.5613 31.7969 31.0535 31.7969 30.0378V27.0847C31.7969 26.0691 32.3828 25.5613 33.5547 25.5613H57.6484C58.8203 25.5613 59.4062 26.0691 59.4062 27.0847V30.0378C59.4062 31.0535 58.8203 31.5613 57.6484 31.5613H49.0234V57.8816C49.0234 58.741 48.6328 59.1707 47.8516 59.1707H43.3516C42.5703 59.1707 42.1797 58.741 42.1797 57.8816V31.5613H33.5547ZM65.5938 59.1707C64.5 59.1707 63.9531 58.5847 63.9531 57.4128V27.3191C63.9531 26.1472 64.5 25.5613 65.5938 25.5613H76.4453C81.2734 25.5613 84.7969 26.3113 87.0156 27.8113C89.2344 29.2957 90.3438 31.7175 90.3438 35.0769C90.3438 37.5769 89.4453 39.5691 87.6484 41.0535C85.8516 42.5378 83.5703 43.5222 80.8047 44.0066V44.0535C82.3047 44.616 83.4375 45.3972 84.2031 46.3972C84.9688 47.3972 85.5938 48.2722 86.0781 49.0222L91.2344 57.155C92.0938 58.4988 91.7969 59.1707 90.3438 59.1707H86.2656C85.4062 59.1707 84.7031 58.7097 84.1562 57.7878L79.4219 49.8894C78.9062 49.0457 77.9609 48.1238 76.5859 47.1238C75.2266 46.1082 73.875 45.6003 72.5312 45.6003H70.7969V57.4128C70.7969 58.5847 70.25 59.1707 69.1562 59.1707H65.5938ZM70.7969 39.7878H74.9922C78.1172 39.7878 80.3359 39.4363 81.6484 38.7332C82.9766 38.0144 83.6406 36.8816 83.6406 35.3347C83.6406 33.6472 83 32.5535 81.7188 32.0535C80.4531 31.5378 78.5859 31.28 76.1172 31.28H70.7969V39.7878ZM96.3672 59.1707C95.2422 59.1707 94.875 58.655 95.2656 57.6238L106.75 27.4597C107.234 26.1941 107.969 25.5613 108.953 25.5613H112.234C113.219 25.5613 113.953 26.1941 114.438 27.4597L125.922 57.6238C126.312 58.655 125.945 59.1707 124.82 59.1707H121.094C120.062 59.1707 119.344 58.6316 118.938 57.5535L116.547 51.2488H104.641L102.25 57.5535C101.844 58.6316 101.125 59.1707 100.094 59.1707H96.3672ZM106.82 45.4363H114.367L111.484 37.9832C111.141 37.1082 110.93 36.4753 110.852 36.0847C110.789 35.6785 110.719 35.0847 110.641 34.3035H110.547C110.469 35.0847 110.391 35.6785 110.312 36.0847C110.25 36.4753 110.047 37.1082 109.703 37.9832L106.82 45.4363ZM128.359 42.366C128.359 36.9753 129.727 32.6941 132.461 29.5222C135.195 26.3503 139.141 24.7644 144.297 24.7644C147.266 24.7644 149.781 25.2253 151.844 26.1472C153.906 27.0691 155.359 28.405 156.203 30.155C156.766 31.3113 156.672 32.0925 155.922 32.4988L153.109 33.9988C152.125 34.53 151.312 34.2332 150.672 33.1082C150.266 32.3894 149.508 31.741 148.398 31.1628C147.305 30.5847 146.016 30.2957 144.531 30.2957C141.25 30.2957 138.953 31.3347 137.641 33.4128C136.328 35.4753 135.672 38.4597 135.672 42.366C135.672 46.2722 136.328 49.2644 137.641 51.3425C138.953 53.405 141.25 54.4363 144.531 54.4363C146.297 54.4363 147.781 54.0378 148.984 53.241C150.203 52.4441 151.047 51.6863 151.516 50.9675C152.281 49.7957 153.094 49.4988 153.953 50.0769L156.766 51.9519C157.531 52.4675 157.609 53.2488 157 54.2957C156.094 55.8582 154.539 57.1941 152.336 58.3035C150.133 59.4128 147.453 59.9675 144.297 59.9675C139.219 59.9675 135.289 58.3816 132.508 55.2097C129.742 52.0378 128.359 47.7566 128.359 42.366ZM164.969 59.1707C163.875 59.1707 163.328 58.5847 163.328 57.4128V27.3191C163.328 26.1472 163.875 25.5613 164.969 25.5613H185.078C186.25 25.5613 186.836 26.0691 186.836 27.0847V29.8503C186.836 30.866 186.25 31.3738 185.078 31.3738H170.172V38.8269H183.836C185.008 38.8269 185.594 39.3347 185.594 40.3503V43.116C185.594 44.1316 185.008 44.6394 183.836 44.6394H170.172V53.3582H185.828C187 53.3582 187.586 53.866 187.586 54.8816V57.6472C187.586 58.6628 187 59.1707 185.828 59.1707H164.969Z" fill="black"/>
<rect x="192.059" y="69.9989" width="29" height="10" transform="rotate(0.339947 192.059 69.9989)" fill="black"/>
<rect x="211.433" y="0.0830078" width="10" height="80" transform="rotate(0.339947 211.433 0.0830078)" fill="black"/>
<rect x="192.433" width="29" height="10" transform="rotate(0.339947 192.433 0)" fill="black"/>
</svg>
